<?xml version="1.0" encoding="utf-8"?> <!-- Generator: IcoMoon.io --> <!DOCTYPE svg PUBLIC "-//W3C//DTD SVG 1.1//EN" "http://www.w3.org/Graphics/SVG/1.1/DTD/svg11.dtd"> <svg width="16" height="16" viewBox="0 0 16 16" xmlns="http://www.w3.org/2000/svg" xmlns:xlink="http://www.w3.org/1999/xlink" fill="#000000"><g><path d="M 8.5,1C 4.358,1, 1,4.358, 1,8.5S 4.358,16, 8.5,16S 16,12.642, 16,8.5S 12.642,1, 8.5,1z M 11.975,5.732L 9.188,8.519 l 2.466,2.749c 0.195,0.195, 0.195,0.512,0,0.707s-0.512,0.195-0.707,0L 8.481,9.226l-2.749,2.749c-0.195,0.195-0.512,0.195-0.707,0 c-0.195-0.195-0.195-0.512,0-0.707l 2.787-2.787L 5.346,5.732c-0.195-0.195-0.195-0.512,0-0.707c 0.195-0.195, 0.512-0.195, 0.707,0 l 2.466,2.749l 2.749-2.749c 0.195-0.195, 0.512-0.195, 0.707,0C 12.17,5.22, 12.17,5.537, 11.975,5.732z"></path></g></svg>