<?xml version="1.0" encoding="utf-8"?> <!-- Generator: IcoMoon.io --> <!DOCTYPE svg PUBLIC "-//W3C//DTD SVG 1.1//EN" "http://www.w3.org/Graphics/SVG/1.1/DTD/svg11.dtd"> <svg width="16" height="16" viewBox="0 0 16 16" xmlns="http://www.w3.org/2000/svg" xmlns:xlink="http://www.w3.org/1999/xlink" fill="#000000"><g><path d="M 14.987,0c-0.56,0-1.013,0.454-1.013,1.013l0,2.362 C 12.832,1.992, 11.516,0, 7.894,0C 3.542,0,0,3.541,0,7.894 c0,4.353, 3.542,7.894, 7.894,7.894c 3.418,0, 6.432-2.183, 7.502-5.432c 0.177-0.541-0.117-1.124-0.658-1.302 c-0.541-0.178-1.124,0.116-1.302,0.657c-0.79,2.401-3.017,4.014-5.542,4.014c-3.216,0-5.832-2.616-5.832-5.832 s 2.616-5.82, 5.832-5.82c 2.277,0, 3.542,1.417, 4.574,2.903L 9.921,4.976 c-0.56,0-1.013,0.454-1.013,1.013c0,0.56, 0.454,1.013, 1.013,1.013 l 5.066,0 C 15.546,7.004, 16,6.55, 16,5.991L 16,1.013 C 16,0.454, 15.546,0, 14.987,0z"></path></g></svg>